<svg width="19" height="16" viewBox="0 0 19 16" fill="none" xmlns="http://www.w3.org/2000/svg">
<path id="Vector" fill-rule="evenodd" clip-rule="evenodd" d="M2.67941 0.382715C3.18992 -0.127572 4.01725 -0.127572 4.52776 0.382715C5.03805 0.893228 5.03805 1.72055 4.52776 2.23107C1.97589 4.78293 1.97589 8.92025 4.52776 11.4722C7.07963 14.0241 11.2169 14.0241 13.7689 11.4722C16.3208 8.92037 16.3208 4.78305 13.7689 2.23107C13.2586 1.72055 13.2586 0.893228 13.7689 0.382715C14.2794 -0.127572 15.1068 -0.127572 15.6173 0.382715C19.1899 3.95538 19.1899 9.74816 15.6173 13.3206C12.0446 16.893 6.25184 16.8933 2.67941 13.3206C-0.89302 9.74793 -0.893253 3.95514 2.67941 0.382715ZM8.35661 9.78842L5.30584 6.79255C4.0781 5.56049 5.9198 3.71237 7.14731 4.94443L7.15962 4.95674C7.53749 5.34076 7.84586 5.21428 7.84586 4.67208V2.27494C7.84586 1.55386 8.43252 0.970186 9.15587 0.970186H9.1406C9.86605 0.970186 10.4504 1.55433 10.4504 2.27494V4.67208C10.4504 5.21336 10.7578 5.3417 11.1371 4.95674L11.1494 4.94443C12.3769 3.71237 14.2186 5.56049 12.9909 6.79255L9.9818 9.78387C9.53465 10.2283 8.80692 10.2306 8.35662 9.78843L8.35661 9.78842Z" fill="#0259FF"/>
</svg>
