<svg width="26" height="26" viewBox="0 0 26 26" fill="none" xmlns="http://www.w3.org/2000/svg">
<path fill-rule="evenodd" clip-rule="evenodd" d="M16.9706 7.92294C17.1196 7.92304 17.2626 7.98229 17.368 8.0877C17.4734 8.1931 17.5326 8.33603 17.5327 8.48509L17.5327 14.8491C17.5354 14.9245 17.5228 14.9998 17.4958 15.0703C17.4687 15.1409 17.4277 15.2052 17.3753 15.2596C17.3228 15.3139 17.2599 15.3571 17.1904 15.3867C17.1209 15.4162 17.0461 15.4314 16.9706 15.4314C16.895 15.4314 16.8203 15.4162 16.7507 15.3867C16.6812 15.3571 16.6183 15.3139 16.5659 15.2596C16.5134 15.2052 16.4724 15.1409 16.4454 15.0703C16.4183 14.9998 16.4058 14.9245 16.4084 14.8491L16.4084 9.84274L8.88304 17.3681C8.77755 17.4736 8.63447 17.5329 8.48529 17.5329C8.3361 17.5329 8.19303 17.4736 8.08754 17.3681C7.98205 17.2626 7.92279 17.1196 7.92279 16.9704C7.92279 16.8212 7.98205 16.6781 8.08754 16.5726L15.6129 9.04724L10.6066 9.04724C10.5311 9.04991 10.4559 9.03734 10.3853 9.01029C10.3148 8.98324 10.2504 8.94226 10.1961 8.8898C10.1418 8.83733 10.0985 8.77446 10.069 8.70493C10.0395 8.6354 10.0243 8.56063 10.0243 8.48509C10.0243 8.40955 10.0395 8.33479 10.069 8.26526C10.0985 8.19573 10.1418 8.13285 10.1961 8.08039C10.2504 8.02793 10.3148 7.98695 10.3853 7.9599C10.4559 7.93285 10.5311 7.92028 10.6066 7.92294L16.9706 7.92294Z" fill="#001942"/>
</svg>
